<svg width="150" height="150" viewBox="0 0 150 150" fill="none" xmlns="http://www.w3.org/2000/svg">
<circle cx="75" cy="75" r="74" stroke="white" stroke-width="2"/>
<path d="M53 60.75C53 64.5561 52.1859 67.9523 50.9184 70.3605C49.6266 72.815 48.0151 74 46.5 74C44.9849 74 43.3734 72.815 42.0816 70.3605C40.8141 67.9523 40 64.5561 40 60.75C40 56.9439 40.8141 53.5477 42.0816 51.1395C43.3734 48.685 44.9849 47.5 46.5 47.5C48.0151 47.5 49.6266 48.685 50.9184 51.1395C52.1859 53.5477 53 56.9439 53 60.75Z" stroke="white" stroke-width="2"/>
<path d="M108.5 60.75C108.5 64.5561 107.686 67.9523 106.418 70.3605C105.127 72.815 103.515 74 102 74C100.485 74 98.8734 72.815 97.5816 70.3605C96.3141 67.9523 95.5 64.5561 95.5 60.75C95.5 56.9439 96.3141 53.5477 97.5816 51.1395C98.8734 48.685 100.485 47.5 102 47.5C103.515 47.5 105.127 48.685 106.418 51.1395C107.686 53.5477 108.5 56.9439 108.5 60.75Z" stroke="white" stroke-width="2"/>
<path d="M74.75 94C85.5107 94 95.3022 103.682 101.07 119L48.4297 119C54.1978 103.682 63.9893 94 74.75 94Z" stroke="white" stroke-width="2"/>
</svg>
